<svg xmlns="http://www.w3.org/2000/svg" width="32.281" height="28.188" viewBox="0 0 32.281 28.188">
  <defs>
    <style>
      .cls-1 {
        fill-rule: evenodd;
        opacity: 0.54;
      }
    </style>
  </defs>
  <path id="Color_Fill_1.svg" data-name="Color Fill 1.svg" class="cls-1" d="M239.321,639.378h-4.027l1.672-2.988a0.956,0.956,0,0,0-.361-1.327,0.944,0.944,0,0,0-1.3.382l-2.25,3.95-7.216-.025,3.606-6.225,4.546,0.025a0.764,0.764,0,0,0,.465-0.1,1.065,1.065,0,0,0,.516-0.824,0.96,0.96,0,0,0-.969-0.977l-3.426-.046,2.012-3.486a0.984,0.984,0,0,0-.361-1.327,0.968,0.968,0,0,0-1.329.362l-2.018,3.51-1.8-3.008a0.97,0.97,0,0,0-1.324-.366,0.983,0.983,0,0,0-.345,1.329l2.344,3.988-3.574,6.207-3.645-6.308,2.27-3.88a0.988,0.988,0,0,0-.332-1.345,0.942,0.942,0,0,0-1.314.353l-1.738,2.944-1.988-3.442a0.981,0.981,0,0,0-1.34-.358,0.963,0.963,0,0,0-.345,1.329l2.008,3.475-3.53.052a0.933,0.933,0,0,0-.948.952,0.965,0.965,0,0,0,.984.968l4.606-.047,3.609,6.247H215.16l-2.231-3.932a0.935,0.935,0,0,0-1.308-.374l-0.031.017a0.99,0.99,0,0,0-.345,1.329l1.671,2.962-3.94.008a0.944,0.944,0,0,0-.964.958,0.971,0.971,0,0,0,.971.979l3.987,0-1.708,3.069a0.937,0.937,0,0,0,.378,1.318,0.9,0.9,0,0,0,.941-0.017,0.948,0.948,0,0,0,.369-0.377l2.249-3.985,7.29-.022-3.645,6.33-4.58-.049a0.954,0.954,0,0,0-1,.941,0.984,0.984,0,0,0,.954.985l3.5,0.041-1.981,3.468a0.96,0.96,0,0,0,.363,1.33,0.9,0.9,0,0,0,.958.012,1.728,1.728,0,0,0,.354-0.368l1.977-3.4,1.732,2.926a0.973,0.973,0,0,0,1.314.35l0.031-.018a0.96,0.96,0,0,0,.32-1.336l-2.29-3.894,3.68-6.307,3.59,6.215-2.344,3.962a0.955,0.955,0,0,0,.347,1.335,0.89,0.89,0,0,0,.96.016,0.945,0.945,0,0,0,.355-0.33l1.8-3.055,2.041,3.533a0.951,0.951,0,0,0,1.316.353,0.965,0.965,0,0,0,.368-1.325l-2.007-3.474,3.42-.033a1,1,0,0,0,.945-0.99,0.973,0.973,0,0,0-1-.959l-4.478.057-3.645-6.309,7.167,0.01,2.265,3.99a0.975,0.975,0,0,0,1.333.383,0.953,0.953,0,0,0,.355-1.313l-1.718-3.077,4.061,0.025a1.027,1.027,0,0,0,.493-0.163,0.9,0.9,0,0,0,.485-0.806A0.965,0.965,0,0,0,239.321,639.378Z" transform="translate(-208 -626.281)"/>
</svg>
