<svg xmlns="http://www.w3.org/2000/svg" xmlns:xlink="http://www.w3.org/1999/xlink" preserveAspectRatio="xMidYMid" width="22" height="23" viewBox="0 0 22 23">
  <defs>
    <style>
      .cls-1, .cls-2 {
        fill: #8b8b8b;
      }

      .cls-1 {
        fill-rule: evenodd;
      }
    </style>
  </defs>
  <g>
    <path d="M67.146,2.969 C64.047,2.969 61.541,5.509 61.541,8.650 C61.541,9.318 61.673,9.987 61.870,10.655 L54.946,17.672 L54.946,21.014 L58.244,21.014 L58.244,19.009 L60.222,19.009 L60.222,17.004 L62.200,17.004 L65.168,13.997 C65.761,14.197 66.421,14.331 67.146,14.331 C70.245,14.331 72.751,11.791 72.751,8.650 C72.751,5.509 70.245,2.969 67.146,2.969 ZM68.795,8.984 C67.674,8.984 66.816,8.116 66.816,6.980 C66.816,5.843 67.674,4.975 68.795,4.975 C69.915,4.975 70.773,5.843 70.773,6.980 C70.773,8.116 69.915,8.984 68.795,8.984 Z" class="cls-1"/>
    <path d="M11.031,0.115 C4.937,0.115 -0.002,5.217 -0.002,11.512 C-0.002,17.806 4.937,22.910 11.030,22.910 C17.123,22.910 22.062,17.806 22.062,11.512 C22.063,5.217 17.123,0.115 11.031,0.115 ZM19.489,7.352 C19.709,7.829 19.457,8.383 18.969,8.538 C18.097,8.815 16.760,9.212 15.781,9.449 C15.283,9.569 14.673,9.253 14.332,8.860 C13.525,7.927 12.354,7.339 11.048,7.339 C9.841,7.339 8.749,7.839 7.953,8.651 C7.589,9.022 7.352,9.386 7.334,9.382 C7.314,9.379 7.302,9.377 7.302,9.377 C7.302,9.377 4.610,8.706 3.172,8.308 C2.678,8.172 2.434,7.626 2.664,7.155 C4.207,3.994 7.370,1.824 11.031,1.824 C14.766,1.824 17.983,4.086 19.489,7.352 ZM19.810,9.697 C19.837,10.083 19.555,10.417 19.183,10.442 C18.810,10.468 18.488,10.176 18.461,9.790 C18.436,9.403 18.716,9.070 19.089,9.044 C19.462,9.018 19.785,9.311 19.810,9.697 ZM17.550,10.451 C17.577,10.836 17.296,11.170 16.923,11.195 C16.550,11.221 16.228,10.928 16.202,10.543 C16.176,10.156 16.457,9.823 16.830,9.797 C17.202,9.771 17.526,10.064 17.550,10.451 ZM6.187,10.543 C6.161,10.929 5.838,11.221 5.465,11.195 C5.093,11.170 4.812,10.836 4.838,10.451 C4.863,10.064 5.186,9.771 5.559,9.797 C5.931,9.823 6.212,10.156 6.187,10.543 ZM3.926,9.790 C3.901,10.176 3.578,10.468 3.205,10.442 C2.833,10.416 2.552,10.083 2.578,9.696 C2.603,9.310 2.926,9.018 3.299,9.044 C3.671,9.070 3.952,9.403 3.926,9.790 ZM1.718,11.374 C1.724,11.286 2.141,11.233 2.646,11.313 C3.514,11.449 4.792,11.698 5.763,11.898 C6.264,12.001 6.676,12.522 6.801,13.034 C7.115,14.319 7.957,15.385 9.076,15.973 C9.532,16.213 9.943,16.742 9.948,17.270 C9.955,18.118 9.966,19.347 9.973,20.192 C9.978,20.720 9.567,21.103 9.068,20.990 C4.860,20.035 1.711,16.167 1.711,11.535 C1.711,11.481 1.714,11.427 1.718,11.374 ZM11.694,20.052 C11.585,20.421 11.205,20.628 10.847,20.516 C10.488,20.403 10.287,20.012 10.396,19.644 C10.506,19.275 10.886,19.068 11.244,19.182 C11.603,19.294 11.804,19.684 11.694,20.052 ZM11.819,17.602 C11.709,17.971 11.330,18.178 10.971,18.066 C10.613,17.953 10.411,17.563 10.521,17.194 C10.631,16.825 11.010,16.618 11.369,16.732 C11.728,16.843 11.928,17.234 11.819,17.602 ZM12.222,20.192 C12.228,19.346 12.239,18.118 12.247,17.270 C12.252,16.742 12.663,16.213 13.119,15.973 C14.238,15.385 15.079,14.319 15.393,13.034 C15.519,12.522 15.930,12.000 16.431,11.898 C17.403,11.698 18.681,11.449 19.548,11.312 C20.054,11.233 20.471,11.286 20.477,11.374 C20.480,11.427 20.484,11.480 20.484,11.534 C20.483,16.166 17.334,20.034 13.128,20.989 C12.628,21.104 12.217,20.721 12.222,20.192 Z" class="cls-1"/>
    <rect x="115.188" y="1.906" width="1.906" height="19.188" rx="0.5" ry="0.5" class="cls-2"/>
    <rect x="106.594" y="1.906" width="1.906" height="19.188" rx="0.5" ry="0.5" class="cls-2"/>
    <rect x="98" y="11.5" width="1.906" height="9.594" rx="0.5" ry="0.5" class="cls-2"/>
    <ellipse cx="107.547" cy="2.875" rx="2.859" ry="2.875" class="cls-2"/>
    <ellipse cx="116.141" cy="2.875" rx="2.859" ry="2.875" class="cls-2"/>
    <circle cx="107.547" cy="20.125" r="2.859" class="cls-2"/>
    <ellipse cx="98.953" cy="20.125" rx="2.86" ry="2.875" class="cls-2"/>
    <circle cx="116.141" cy="20.125" r="2.859" class="cls-2"/>
    <rect x="98" y="11.5" width="18.125" height="1.906" rx="0.5" ry="0.5" class="cls-2"/>
  </g>
</svg>
